PathFileType	4	(X/Y/Z)	C:\Users\Basilio\Documents\Thesis Gigler\squatting_fais\c3dfiles\044\SLS_back_pre2\markers_experimental.trc
DataRate	CameraRate	NumFrames	NumMarkers	Units	OrigDataRate	OrigDataStartFrame	OrigNumFrames
200.000000	200.000000	4	63	mm	200.000000	181	1449
Frame#	Time	FHD			LBHD			RBHD			C7			T10			LSHO			LUUPA			LMUPA			LDUPA			LLEP			LMEP			LUL			LRFIN			RSHO			RUPA1			RMUPA			RDUPA			RLEP			RMEP			RUL			LASI			RASI			USACR			LSACR			RSACR			LTHI1			LTHI2			LTHI3			LTHI4			LLFC			LMFC			LTIB1			LTIB2			LTIB3			LTIB4			LLMAL			LMMAL			LHEE			LMT1			LMT2			LMT5			RTHI			RTHI2			RTHI3			RTHI4			RLFC			RMFC			RTIB1			RTIB2			RTIB3			RTIB4			RLMAL			RMMAL			RHEE			RMT1			RMT2			RMT5			RUFIN			CLAV			LRAD			RRAD			*61			*62			
		X1	Y1	Z1	X2	Y2	Z2	X3	Y3	Z3	X4	Y4	Z4	X5	Y5	Z5	X6	Y6	Z6	X7	Y7	Z7	X8	Y8	Z8	X9	Y9	Z9	X10	Y10	Z10	X11	Y11	Z11	X12	Y12	Z12	X13	Y13	Z13	X14	Y14	Z14	X15	Y15	Z15	X16	Y16	Z16	X17	Y17	Z17	X18	Y18	Z18	X19	Y19	Z19	X20	Y20	Z20	X21	Y21	Z21	X22	Y22	Z22	X23	Y23	Z23	X24	Y24	Z24	X25	Y25	Z25	X26	Y26	Z26	X27	Y27	Z27	X28	Y28	Z28	X29	Y29	Z29	X30	Y30	Z30	X31	Y31	Z31	X32	Y32	Z32	X33	Y33	Z33	X34	Y34	Z34	X35	Y35	Z35	X36	Y36	Z36	X37	Y37	Z37	X38	Y38	Z38	X39	Y39	Z39	X40	Y40	Z40	X41	Y41	Z41	X42	Y42	Z42	X43	Y43	Z43	X44	Y44	Z44	X45	Y45	Z45	X46	Y46	Z46	X47	Y47	Z47	X48	Y48	Z48	X49	Y49	Z49	X50	Y50	Z50	X51	Y51	Z51	X52	Y52	Z52	X53	Y53	Z53	X54	Y54	Z54	X55	Y55	Z55	X56	Y56	Z56	X57	Y57	Z57	X58	Y58	Z58	X59	Y59	Z59	X60	Y60	Z60	X61	Y61	Z61	X62	Y62	Z62	X63	Y63	Z63	

182	0.905	-213.6241912841797	1794.983032226563	-921.3210449218752	-354.3891601562501	1763.902954101563	-984.6120605468752	-382.5238037109376	1749.165405273438	-821.5205078125002	-403.8199462890626	1562.062133789063	-911.181335449219	-384.8195190429689	1260.7236328125	-904.7156982421877	-314.5655822753907	1588.636840820313	-1060.881713867188	-150.5156860351563	1575.330688476563	-1158.8759765625	-123.8484420776367	1589.214721679688	-1119.324584960938	-82.25686645507814	1574.830078125	-1159.51171875	-24.46735000610352	1577.774658203125	-1149.296875	-27.49323272705079	1503.369018554688	-1135.932373046875	231.1712951660157	1611.986206054688	-1031.704833984375	244.1814270019532	1628.666870117188	-929.518493652344	-312.6760253906251	1571.19287109375	-751.6994628906251	-157.4775390625	1557.807739257813	-651.5997924804689	-129.392562866211	1575.580810546875	-690.4943847656251	-87.8832244873047	1563.181884765625	-647.6527099609376	-27.39508628845216	1572.057495117188	-657.3761596679689	-22.96445465087891	1491.0654296875	-669.2074584960939	224.9933166503907	1608.5986328125	-782.9766235351565	-213.9377441406251	1069.445068359375	-1014.877746582031	-197.3655548095704	1057.904052734375	-797.4271240234377	-373.3765563964844	1117.23193359375	-893.8690185546877	-380.4739379882813	1084.20166015625	-919.8269653320315	-374.9422607421876	1087.395263671875	-862.465759277344	-306.7169189453126	829.8011474609377	-1085.424072265625	-273.1542358398438	752.4650878906251	-1086.76171875	-224.6733093261719	755.4408569335939	-1081.85986328125	-299.0929260253907	699.4390258789064	-1073.128784179688	-279.1383972167969	540.9311523437501	-1062.450317382813	-269.9727783203126	532.6362915039064	-939.9931640625002	-259.8743286132813	363.2939147949219	-995.1662597656252	-286.2066345214844	318.9744873046876	-1068.334228515625	-256.5920104980469	316.6380004882813	-1031.56982421875	-273.8561096191407	237.959213256836	-1004.392395019531	-326.7976684570313	124.3333053588867	-1055.188842773438	-307.3447875976563	129.4767150878907	-970.9538574218752	-388.9975891113282	98.65553283691409	-1008.416931152344	-180.5220031738282	59.43669891357423	-985.1182861328127	-179.2607116699219	59.58215332031251	-1031.71826171875	-216.4787139892579	46.13811111450196	-1079.234008789063	-297.2691345214844	790.1186523437502	-710.3797607421876	-256.7359924316407	736.1585693359376	-707.4672241210939	-224.1119842529297	738.1290893554689	-712.9067382812501	-281.6257629394532	656.2089233398439	-722.4235839843751	-285.8595275878907	542.0509033203126	-726.4785766601564	-289.5826721191407	531.3130493164064	-850.106872558594	-248.7499694824219	410.9701538085939	-747.2178344726564	-322.9270019531251	345.6221313476563	-697.8875732421876	-281.4594421386719	335.7115173339844	-714.6959838867189	-273.9262390136719	283.5706176757813	-738.2454223632814	-347.3320922851563	135.4149932861328	-718.7581787109376	-324.5450134277344	139.3780212402344	-799.8384399414065	-405.4271850585939	108.4856109619141	-764.5653076171876	-200.1791381835938	63.32069778442384	-777.8623657226565	-196.805160522461	59.2744827270508	-742.8873901367189	-236.5070800781251	46.95065689086915	-689.5072021484376	231.6686401367188	1591.070922851563	-899.5516357421877	nan	nan	nan	nan	nan	nan	nan	nan	nan	nan	nan	nan	nan	nan	nan	
183	0.91	-213.1350250244141	1795.010864257813	-921.8750000000002	-353.9008483886719	1763.992797851563	-985.2175292968752	-382.2494506835938	1749.149291992188	-821.8169555664065	-403.5528564453126	1562.181640625	-911.6964111328127	-384.7671508789064	1260.861450195313	-905.0717773437502	-314.4246215820313	1588.671020507813	-1061.215942382813	-150.1528930664063	1575.06640625	-1159.566772460938	-123.7274246215821	1588.99951171875	-1119.751342773438	-81.78829193115236	1574.525146484375	-1160.321166992188	-24.30334281921387	1577.638549804688	-1149.807495117188	-27.11035156250001	1503.310546875	-1136.517822265625	231.4496002197266	1611.515258789063	-1032.335205078125	244.0836944580079	1628.835693359375	-930.2224731445315	-312.3462524414063	1571.287475585938	-752.2350463867189	-157.1605224609375	1557.710571289063	-652.1065063476564	-128.9762725830078	1575.677612304688	-691.0764160156251	-87.62819671630861	1563.1689453125	-648.2546386718751	-27.06321525573731	1572.012451171875	-657.9044189453126	-22.59691619873047	1490.902221679688	-669.9495849609376	225.3187866210938	1608.313110351563	-783.5481567382815	-214.1768035888672	1069.392578125	-1015.15673828125	-197.5542449951172	1057.976440429688	-797.7645263671877	-373.5569152832032	1117.227661132813	-894.2153930664065	-380.6300354003907	1084.225830078125	-920.1743164062502	-375.0951232910157	1087.401245117188	-862.859313964844	-306.4619750976563	829.613464355469	-1085.697509765625	-272.8272705078126	752.4194946289064	-1086.920043945313	-224.4197845458985	755.3171997070314	-1082.147583007813	-298.6358947753907	699.2741088867189	-1073.3671875	-278.2884826660157	540.9087524414064	-1062.816040039063	-269.2155151367188	532.6262817382814	-940.2981567382815	-259.6458129882813	363.1570739746094	-995.2734985351565	-285.9205322265626	318.8786315917969	-1068.419921875	-256.3781433105469	316.4437561035157	-1031.620727539063	-273.0891113281251	238.0435485839844	-1004.466979980469	-326.7330017089844	124.3456039428711	-1055.242309570313	-307.2869567871094	129.5069732666016	-970.904724121094	-388.9014587402345	98.59425354003909	-1008.393737792969	-180.5324859619141	59.47000885009767	-985.122985839844	-179.3704833984375	59.74562072753908	-1031.705810546875	-216.4557189941407	46.1634864807129	-1079.192260742188	-297.3073730468751	790.1329345703127	-710.6871337890626	-256.7202758789063	735.9819335937501	-707.6420898437501	-224.0580139160157	738.1438598632814	-713.0466918945314	-281.4375915527344	656.0784301757814	-722.7579956054689	-285.8244934082032	542.0870361328126	-726.6616821289064	-289.4896545410157	531.2849731445314	-850.2653808593752	-248.6268768310547	410.8994750976564	-747.3064575195314	-322.7673950195313	345.6825256347657	-698.0719604492189	-281.3307800292969	335.7098388671876	-714.8039550781251	-273.8558349609376	283.5783081054688	-738.3830566406251	-347.3653869628907	135.3618927001953	-718.7557983398439	-324.5491027832032	139.3828735351563	-799.8416748046877	-405.4126281738282	108.479248046875	-764.5608520507814	-200.2241363525391	63.34254837036134	-777.876892089844	-196.6420440673829	59.62212371826173	-742.7021484375001	-236.5048522949219	46.92868804931641	-689.5259399414064	232.0084838867188	1590.661743164063	-900.182556152344	nan	nan	nan	nan	nan	nan	nan	nan	nan	nan	nan	nan	nan	nan	nan	
184	0.915	-212.6438140869141	1795.025146484375	-922.4251708984377	-353.7247314453126	1763.884033203125	-985.698669433594	-381.7529602050782	1749.164916992188	-822.372741699219	-403.280731201172	1562.321044921875	-912.2798461914065	-384.7043457031251	1260.91796875	-905.4710083007815	-314.1254882812501	1588.590087890625	-1061.77978515625	-149.9241485595703	1575.028564453125	-1160.147827148438	-123.2904815673828	1588.879028320313	-1120.391357421875	-81.69521331787111	1574.509643554688	-1160.796997070313	-23.432523727417	1576.992431640625	-1150.423217773438	-27.12767028808594	1503.095581054688	-1137.11962890625	231.5775299072266	1611.370239257813	-1033.06787109375	244.4925079345704	1628.02197265625	-930.7456665039065	-311.9700927734376	1571.205688476563	-752.8100585937501	-156.8372955322266	1557.65673828125	-652.7105712890626	-128.606918334961	1575.598876953125	-691.6306152343751	-87.23914337158205	1563.03125	-648.7908325195314	-26.77080726623536	1571.863891601563	-658.4505615234376	-22.31135368347168	1490.795288085938	-670.4411621093751	225.6327056884766	1607.936645507813	-784.2293701171877	-214.3244781494141	1069.357055664063	-1015.567077636719	-197.6965789794922	1057.916381835938	-798.239685058594	-373.7220458984376	1117.150512695313	-894.548767089844	-380.8310546875001	1084.242431640625	-920.547058105469	-375.2219848632813	1087.45654296875	-863.2734375000002	-306.3985595703126	829.4958496093752	-1085.888305664063	-272.6469421386719	752.3313598632814	-1087.214233398438	-224.2419738769532	755.3021240234376	-1082.37646484375	-298.3245544433594	699.1328735351564	-1073.580444335938	-277.5055541992188	540.8129272460939	-1063.08447265625	-268.2817993164063	532.7877197265626	-940.7517089843752	-258.6624755859376	363.1034851074219	-995.4442138671877	-284.8835754394532	318.6620178222657	-1068.694702148438	-255.9518280029297	316.2674560546876	-1031.689819335938	-272.7830200195313	237.9566040039063	-1004.609375	-326.6722412109376	124.3907852172852	-1055.2294921875	-307.2718505859376	129.4727172851563	-970.9075317382815	-388.8746337890626	98.69262695312503	-1008.386779785156	-180.5286712646485	59.43761444091798	-985.0895996093752	-179.246810913086	59.58158493041994	-1031.708618164063	-216.4704284667969	46.24583435058594	-1079.182250976563	-297.3724670410157	790.1933593750002	-711.0587158203126	-256.5891723632813	735.9649047851564	-707.8359985351564	-224.0650177001954	738.1408691406251	-713.2379760742189	-281.4102172851563	656.1047973632814	-722.9862670898439	-285.7088928222657	542.0703125000001	-726.8429565429689	-289.3490600585938	531.1907958984376	-850.464538574219	-248.4030761718751	410.860565185547	-747.4735717773439	-322.5927734375001	345.7381896972657	-698.2281494140626	-281.2546691894532	335.6846008300782	-714.8949584960939	-273.7496643066407	283.5068664550782	-738.4511108398439	-347.3347778320313	135.349594116211	-718.7761840820314	-324.5723571777344	139.3772430419922	-799.858337402344	-405.3599243164064	108.46240234375	-764.6111450195314	-198.6514129638672	63.1541213989258	-777.6726074218752	-196.3504486083985	59.47153854370119	-742.5098266601564	-236.4997100830079	46.92552566528321	-689.5315551757814	232.4098663330079	1590.276245117188	-900.8154907226565	nan	nan	nan	nan	nan	nan	nan	nan	nan	nan	nan	nan	nan	nan	nan	
185	0.92	-212.3182983398438	1795.175903320313	-923.1131591796877	-353.3763732910157	1763.900756835938	-986.2595825195315	-381.3692626953126	1749.280151367188	-822.9526977539065	-403.070037841797	1562.3486328125	-912.7881469726565	-384.7485961914064	1260.960327148438	-905.8935546875002	-313.6609497070313	1588.483154296875	-1062.409057617188	-149.812728881836	1575.044921875	-1160.71533203125	-123.008659362793	1588.651489257813	-1120.851196289063	-81.61707305908205	1574.293334960938	-1161.331909179688	-23.36533164978028	1576.809204101563	-1151.02197265625	-26.3811378479004	1503.130737304688	-1137.9970703125	231.9665527343751	1610.735595703125	-1033.551879882813	245.1133575439454	1627.619873046875	-931.609558105469	-311.6171569824219	1571.236083984375	-753.3477172851564	-156.6053924560547	1557.568115234375	-653.1928710937501	-128.2000579833985	1575.393188476563	-692.2017211914064	-86.94530487060548	1562.957641601563	-649.2984008789064	-26.27597999572755	1571.666625976563	-659.1831054687501	-22.0556812286377	1490.550659179688	-670.8521728515626	226.0191955566407	1607.742553710938	-784.9730224609377	-214.6516113281251	1069.166748046875	-1015.978576660156	-197.9167633056641	1057.9091796875	-798.6324462890627	-373.8264160156251	1117.03564453125	-894.8911132812502	-381.0158386230469	1084.127197265625	-920.8607177734377	-375.3233032226563	1087.427368164063	-863.615905761719	-306.4022521972657	829.4051513671877	-1086.026245117188	-272.3841552734376	752.1247558593751	-1087.485717773438	-223.9439392089844	755.3565063476564	-1082.698608398438	-297.9514160156251	698.9884033203126	-1073.7841796875	-276.7230224609376	540.5457153320314	-1063.33740234375	-267.5578002929688	532.7055664062501	-941.0987548828127	-258.3822937011719	362.9157104492188	-995.5686035156252	-285.0451354980469	318.7214965820313	-1068.606079101563	-255.3802795410157	316.3468322753907	-1031.822631835938	-272.7694702148438	237.7278747558594	-1004.697692871094	-326.6671447753907	124.3662796020508	-1055.243041992188	-307.2723999023438	129.5246276855469	-970.916198730469	-388.838592529297	98.62443542480472	-1008.314147949219	-180.4709625244141	59.43211746215822	-985.0570068359377	-179.388916015625	59.6017303466797	-1031.695068359375	-216.4855041503907	46.31640625000001	-1079.18701171875	-297.4002990722657	790.0122680664065	-711.2366333007814	-256.5856628417969	735.8805541992189	-708.0158081054689	-223.9933013916016	738.1307373046876	-713.5909423828126	-281.3471069335938	656.1230468750001	-723.2285156250001	-285.4739074707032	542.0102539062501	-727.0726318359376	-289.1806335449219	531.1491699218751	-850.6184692382815	-248.3397979736329	410.959930419922	-747.6237182617189	-322.5029907226563	345.8156127929688	-698.2829589843751	-281.0740356445313	335.7904968261719	-715.1086425781251	-273.6092224121094	283.4320068359376	-738.5238647460939	-347.3164978027344	135.4344482421875	-718.7711791992189	-324.5153198242188	139.3576354980469	-799.875183105469	-405.4227600097657	108.5216979980469	-764.5861206054689	-200.1999664306641	63.30982971191408	-777.851013183594	-196.7901763916016	59.2779998779297	-742.8257446289064	-236.611312866211	46.99262619018555	-689.5685424804689	232.8429565429688	1589.916015625	-901.4651489257815	nan	nan	nan	nan	nan	nan	nan	nan	nan	nan	nan	nan	nan	nan	nan	
